<?xml version="1.0" encoding="utf-8"?>
<!-- Generator: Adobe Illustrator 22.0.1, SVG Export Plug-In . SVG Version: 6.00 Build 0)  -->
<svg version="1.1" id="Layer_1" xmlns="http://www.w3.org/2000/svg" xmlns:xlink="http://www.w3.org/1999/xlink" x="0px" y="0px"
	 viewBox="0 0 155 189.8" style="enable-background:new 0 0 155 189.8;" xml:space="preserve">
<style type="text/css">
	.st0{fill:#2E3291;}
	.st1{fill:#EE3128;}
</style>
<g>
	<path class="st0" d="M142.1,80c0,3.7-0.5,7.1-1.6,10.7c-0.3,2.1-1.8,3.8-3.9,4.3c-0.4,0.1-0.9-0.1-1.2-0.4
		c-0.3-0.3-0.3-0.8-0.2-1.2c0.8-1.3,0.8-3,0-4.3c-2-3.5-4.3-6.5-7.1-9.3c-0.5-0.5-0.5-1.3-0.2-1.9c0.3-0.6,1-1,1.7-0.9
		c3.2-0.5,6.1-0.5,9.3,0.2c0.8,0,1.5,0.3,2.1,0.9C141.7,78.5,142,79.2,142.1,80L142.1,80z"/>
	<path class="st0" d="M139.4,56.9c1.3,3.7,2.1,7.3,2.4,11.3c0.5,1.2,0.3,2.5-0.5,3.5c-0.8,1-2,1.5-3.3,1.3c-2,0-3.8,0-5.7,0
		c-1.6,0.1-3.2-0.3-4.5-1.3c-1.3-1-2.2-2.3-2.5-3.9c-0.9-3.6-1.6-6.9-2.3-10.6c0.2-1.7,1.5-3,3.2-3.2c3.2-0.3,6.2-0.3,9.4-0.2
		C137.3,54.1,138.7,55.2,139.4,56.9L139.4,56.9z"/>
	<path class="st0" d="M118.9,106.4c3.4,0.6,6.5,1,9.9,1.1c0.4,0.1,0.8,0,1.2-0.3c0.3-0.2,0.6-0.6,0.7-1c0.1-0.4,0-0.8-0.2-1.2
		c-0.2-0.4-0.6-0.6-1-0.7c-3.2-0.3-6-0.8-9.1-1.5c1.1-2.6,3.6-4.3,6.4-4.3c2.3-0.2,4.5-0.3,6.8-0.2c0.7,0,1.3,0.3,1.8,0.8
		c0.5,0.5,0.8,1.1,0.8,1.8c-1.6,5-4.1,9.3-7.7,13.1c-1.3,1.2-2.9,1.8-4.7,1.9c-2.4,0.1-4.6,0.1-7,0c-0.8,0.1-1.6-0.1-2.1-0.8
		s-0.6-1.5-0.3-2.2C116.2,110.9,117.6,108.8,118.9,106.4L118.9,106.4z"/>
	<path class="st0" d="M129.4,34.2c2.6,4.2,4.8,8.2,6.9,12.6c0.5,0.8,0.4,1.8-0.1,2.5c-0.6,0.7-1.5,1-2.4,0.8
		c-3.2-0.3-6.1-0.4-9.2-0.4c-1.9,0.2-3.6-0.9-4.3-2.7l-6.7-12.5c-0.4-0.7-0.3-1.7,0.2-2.3c0.5-0.7,1.4-0.9,2.3-0.6
		c3.1-0.5,6-0.4,9.1,0.2C126.9,31.8,128.4,32.7,129.4,34.2L129.4,34.2z"/>
	<path class="st0" d="M110.2,35.1l5.3,11.3c0.6,0.8,0.6,1.8,0.1,2.6c-0.5,0.8-1.6,1.2-2.5,0.9c-3.9-0.2-7.4-0.2-11.3-0.1
		c-1.9,0-3.6-1.1-4.4-2.8l-3.1-12.6c0-0.9,0.4-1.7,1-2.3c0.6-0.6,1.5-1,2.4-1c1.1-0.1,2.1-0.1,3.1-0.1l2.7,0
		C106.4,31.2,108.8,32.7,110.2,35.1L110.2,35.1z"/>
	<path class="st0" d="M100.6,103.4c4.5,0.3,8.5,1.2,12.8,2.7c0.3,0.2,0.6,0.5,0.6,0.9c0.1,0.4-0.1,0.8-0.3,1
		c-1.2,2.2-2.4,4.1-3.8,6.1c-1.2,1.1-2.6,1.7-4.2,1.8c-3.1,0.2-6,0.1-9.1-0.1c-0.9-0.3-1.7-0.8-2.2-1.7c-0.5-0.8-0.7-1.8-0.5-2.7
		c0.4-2.6,1.5-4.8,3.4-6.6C98,103.7,99.3,103.2,100.6,103.4L100.6,103.4z"/>
	<path class="st0" d="M118.4,27.6c-1.6,0-3,0-4.6,0c-3,0.2-5.8-1.1-7.6-3.5c-5.1-5.2-10.2-9.4-16.3-13.4l-0.2-0.1
		c-0.2-0.1-0.3-0.2-0.4-0.4c-0.1-0.2-0.1-0.4,0-0.6s0.2-0.3,0.4-0.5C89.9,9,90.1,9,90.3,9c11.5,2.1,21.4,7.2,29.7,15.4
		c0.6,0.5,0.8,1.5,0.4,2.2C120,27.4,119.2,27.8,118.4,27.6L118.4,27.6z"/>
	<path class="st0" d="M119.1,119.9c0.7,0.4,1.2,1.1,1.2,1.9c0.1,0.8-0.3,1.6-0.9,2.1c-8.9,6.8-18.4,11.1-29.4,13.5
		c-0.6,0.1-1.1-0.2-1.4-0.7s-0.2-1.1,0.2-1.6c7.1-3,13-7.3,18.1-13.2c0.6-0.5,1.3-1,2-1.4C112.2,119.2,115.7,119,119.1,119.9
		L119.1,119.9z"/>
	<path class="st0" d="M101.3,24.4c0.5,0.5,0.6,1.2,0.4,1.9c-0.3,0.7-0.8,1.1-1.5,1.2c-2.6,0.1-5-0.1-7.6-0.7c-0.7,0-1.3-0.2-1.8-0.6
		c-0.5-0.4-0.8-1-1-1.7c-1.6-3.6-3.1-6.9-4.8-10.5c0-0.1,0-0.1,0-0.2c0-0.3,0.2-0.6,0.4-0.8c0.3-0.2,0.6-0.1,0.9,0
		C92,16.2,96.7,19.8,101.3,24.4L101.3,24.4z"/>
	<path class="st0" d="M101.7,122.9c-4.8,4.4-9.9,7.6-15.8,10.1c-0.3,0.4-0.9,0.5-1.3,0.3s-0.7-0.8-0.6-1.2c1-4.4,3.1-8.2,6.3-11.5
		c3.6-1.5,7.4-1.8,11.1-0.7c0.7,0.1,1.3,0.6,1.4,1.3C102.8,122,102.4,122.6,101.7,122.9L101.7,122.9z"/>
	<path class="st0" d="M83.6,27.3c-4.7-0.1-8.9-0.2-13.6-0.5c-0.8,0-1.5-0.5-1.8-1.2c-0.3-0.7-0.1-1.6,0.4-2.1
		c1.5-3.4,3.1-6.4,5.1-9.4c0.7-1.1,2-1.7,3.3-1.7c1.3,0,2.5,0.7,3.2,1.8c2.4,3,4.1,6.2,5.3,9.8c0.3,0.7,0.3,1.5-0.1,2.2
		C85.2,26.9,84.4,27.3,83.6,27.3L83.6,27.3z"/>
	<path class="st0" d="M84.7,119.6c0.6,0.3,1,0.8,1.1,1.4c0.2,0.6,0,1.2-0.4,1.7c-1.8,2.8-3.4,5.4-5,8.4c-0.8,1.1-2,1.7-3.3,1.7
		c-1.3,0-2.6-0.5-3.4-1.5c-2.2-2.8-3.9-5.5-5.6-8.7c-0.4-0.8-0.4-1.8,0.2-2.5c0.5-0.7,1.5-1.1,2.4-0.9
		C75.4,119.2,79.8,119.3,84.7,119.6L84.7,119.6z"/>
	<path class="st0" d="M85.4,31c2.1,0.1,3.9,1.5,4.6,3.5l3,10.4c0.2,1.2-0.1,2.3-0.9,3.2c-0.7,0.9-1.8,1.5-3,1.6
		c-8.6,0-16.5-0.1-25.2-0.3c-1.1-0.2-2-0.8-2.6-1.7c-0.6-0.9-0.7-2-0.4-3.1l4.4-11.2c0.8-1.7,2.6-2.8,4.5-2.6L85.4,31L85.4,31z"/>
	<path class="st0" d="M90.3,106.6c0.2-0.1,0.5,0,0.7,0.1c0.2,0.1,0.3,0.3,0.3,0.6c0.1,2-0.6,3.9-2.1,5.3c-1.4,1.5-3.2,2.5-5.2,3
		c-4,0.2-7.5,0.3-11.5,0.3c-2.8-0.1-5.4-1.6-6.9-4c-2.3-3.3-3.7-6.6-4.6-10.5c-0.3-0.5-0.4-1.1-0.3-1.6c0.1-0.6,0.4-1.1,0.8-1.4
		c0.5-0.3,1-0.4,1.5-0.3c0.5,0.1,0.9,0.5,1.2,0.9c0.7,1.7,1.7,3.2,2.9,4.6c2.9,3.3,6.6,5.4,11,5.9C82.5,110.1,86.7,109.1,90.3,106.6
		L90.3,106.6z"/>
	<path class="st0" d="M60.3,119c1.5-0.4,3,0.2,4,1.3c1.9,3.7,3.6,7,5.4,10.7c0.3,0.5,0.1,1.2-0.4,1.6c-0.5,0.4-1.1,0.4-1.6,0
		c-6.1-2.7-11.1-6.3-15.7-11.1c-0.3-0.4-0.4-0.8-0.3-1.3c0.2-0.4,0.5-0.8,1-0.8C55.3,119.1,57.7,118.9,60.3,119L60.3,119z"/>
	<path class="st0" d="M63.9,24.8c-0.8,1.2-2,2-3.4,2.1c-2.8,0.3-5.3,0.1-8.1-0.5c-0.5-0.3-0.9-0.8-0.9-1.3c-0.1-0.6,0.1-1.1,0.6-1.5
		c5-5,10.4-8.7,16.9-11.6c0.3-0.1,0.6-0.1,0.9,0c0.3,0.2,0.5,0.4,0.5,0.7L63.9,24.8L63.9,24.8z"/>
	<path class="st0" d="M59.6,35.8c-1.6,3.4-2.9,6.5-4,10.1c-0.8,1.5-2.1,2.5-3.6,3c-2.4,0.9-4.9,0.9-7.2-0.1c1.5-0.8,2.5-2,3.1-3.6
		c0.5-1.6,0.5-3.2-0.2-4.7c-0.2-0.4-0.5-0.7-1-0.8c-0.5-0.1-0.9,0.1-1.2,0.4c-0.7,0.9-1.8,1.4-3,1.3c-0.6-0.1-1.2-0.4-1.6-0.9
		c-0.4-0.5-0.6-1.1-0.5-1.7c0-1.6,0.5-3.2,1.5-4.4c1.2-2.3,3.5-3.8,6.1-3.9c2.8-0.2,5.4-0.2,8.2-0.1c1.2,0.3,2.1,1,2.7,2
		C59.7,33.4,59.9,34.6,59.6,35.8L59.6,35.8z"/>
	<path class="st0" d="M56.6,98.5c1.7,4.5,3.1,8.6,4.3,13.3c0.1,0.9-0.2,1.7-0.8,2.3c-0.6,0.6-1.4,1-2.3,0.9c-3.1,0.3-6,0.3-9.1,0.2
		c-0.1,0-0.2-0.1-0.3-0.1c-4.9-4.4-8.4-9.4-11-15.5c-0.1-0.5-0.1-0.9,0.1-1.4c0.3-0.5,0.8-0.9,1.4-1.1c4.6-1,9-1.1,13.6-0.4
		C54,96.8,55.5,97.4,56.6,98.5L56.6,98.5z"/>
	<path class="st0" d="M44.7,118.9l1.6,0.7c5.4,6.4,11.4,11.3,18.8,15.2c0.2,0.1,0.4,0.3,0.5,0.6c0.1,0.2,0.2,0.4,0.2,0.7
		c0,0.2-0.2,0.4-0.4,0.6c-0.3,0.2-0.5,0.2-0.8,0.2c-10.2-2.3-19.1-5.9-27.9-11.4c-2.2-1-3.7-3-4.2-5.5c0.1-0.2,0.3-0.4,0.5-0.5
		C37,118.3,40.8,118.1,44.7,118.9L44.7,118.9z"/>
	<path class="st0" d="M46,24.2c-1.3,1.6-3.2,2.4-5.3,2.2c-2.3,0-4.3-0.1-6.5-0.3c-0.8,0-1.5-0.5-1.7-1.3c-0.2-0.8,0.2-1.6,0.9-2
		C42.6,15,52.9,10.2,64.8,8.1c0.3,0,0.7,0.2,0.8,0.5c0.2,0.3,0.2,0.7,0,1C57.9,13.2,51.6,17.9,46,24.2L46,24.2z"/>
	<path class="st0" d="M115.8,98.1c-1.9-0.2-3.6-0.2-5.5,0c-0.2,0-0.4,0.2-0.4,0.4c0,0.2,0,0.4,0.2,0.5c1.6,0.9,3.2,1.4,5.1,1.7
		c0.2,0.1,0.4,0,0.6-0.1c0.2-0.1,0.4-0.2,0.5-0.5c0.2-0.3,0.2-0.7,0.2-1.1C116.3,98.6,116.1,98.3,115.8,98.1L115.8,98.1z"/>
	<path class="st0" d="M114.8,54.2c-4.6-0.8-9-0.9-13.6-0.2c-0.6,0.1-1.2,0.4-1.6,0.9c-0.4,0.5-0.5,1.1-0.5,1.7l2,12.2
		c0.5,1.9,2.2,3.3,4.1,3.4c0.8,0.2,1.6,0,2.3-0.5c0.7-0.5,1.1-1.2,1.1-2.1c0.4-1,1.2-1.7,2.2-2.1c1-0.4,2.1-0.3,3.1,0.1
		c1.6,0.8,3,1.6,4.5,2.7c0.2,0.3,0.5,0.5,0.8,0.6s0.7,0,1-0.1s0.5-0.4,0.7-0.8c0.1-0.3,0.1-0.7,0-1c-0.4-3.9-1.1-7.4-2.1-11.2
		c0-0.1-0.1-0.2-0.1-0.2C118.2,55.7,116.7,54.4,114.8,54.2L114.8,54.2z"/>
	<path class="st0" d="M101.6,95.7l6-3c3.8,0.4,7.4-0.4,10.7-2.3c1.8-2.8,1.3-6.6-1.1-8.8c-2.4-2.3-6.2-2.5-8.9-0.6
		c-4.2,1.7-7.7,3.8-11.2,6.7c0.4,0.9,0.2,1.9-0.4,2.7C97.5,92.9,99.3,94.8,101.6,95.7L101.6,95.7z"/>
	<path class="st0" d="M91.7,75.3l-8.9-0.1c-0.6-0.1-1.2,0.3-1.4,0.9c-0.2,0.6,0,1.2,0.6,1.6c2.5,0.8,4.4,2.6,5.3,5
		c3.1-0.3,5.7-2.2,6.8-5.1C93.9,76.3,92.9,75.4,91.7,75.3L91.7,75.3z"/>
	<path class="st0" d="M79.6,95.1c4,1,7.7,1.8,11.7,2.5c2.2-2.3,3.5-5,4-8.2c-2.2,0.4-4.1,1.1-6.1,2.2C86.5,94,83.2,95.2,79.6,95.1
		L79.6,95.1z"/>
	<path class="st1" d="M71.6,95.5C70.8,96.2,70.3,97,70,98c-0.1,0.1-0.1,0.3,0,0.4s0.1,0.2,0.3,0.3c1.4,0.2,2.6,0.2,4,0
		c0.1,0,0.3,0,0.3-0.1c0.1-0.1,0.1-0.2,0.1-0.3c0-1-0.2-1.9-0.5-2.8C73.3,95.5,72.5,95.6,71.6,95.5L71.6,95.5z"/>
	<path class="st1" d="M70.9,94.6c1.4,0.2,2.7,0.1,4.1-0.2c1.4-4.4,2-8.6,2.2-13.2c0-0.2,0-0.3-0.1-0.4c-0.1-0.1-0.2-0.2-0.3-0.2
		c-5.3-1.5-10.2-2.7-15.6-3.7c-0.6-0.2-1.2-0.1-1.7,0.2c-0.5,0.3-0.8,0.8-0.8,1.4c0.2,1.4,1.2,2.6,2.6,3c3.3,1.6,6.8,2.2,10.5,1.7
		L70.9,94.6L70.9,94.6z"/>
	<path class="st0" d="M68.6,53.1l-5.6,0c-1.4,0-2.7,0.5-3.7,1.4c-0.1,0.1-0.2,0.2-0.3,0.3l-2.2,10.2c-0.6,1.1-0.4,2.4,0.5,3.2
		s2.3,0.9,3.3,0.2l0.8,0c3.5,0.9,6.6,1.9,9.9,3.3l21.7,0c1.9-0.3,3.4-1.8,3.7-3.7l-1.8-11.1c-1.8-2.9-5.2-4.4-8.6-3.7L68.6,53.1
		L68.6,53.1z"/>
	<path class="st0" d="M44.3,73.1c0.1-0.1,0.1-0.1,0.2-0.1c0.1,0,0.2,0,0.3,0.1c0.1,0,0.1,0.1,0.2,0.2c0,0.1,0,0.2,0,0.3l3.8-5.6
		c0-0.2,0-0.3-0.2-0.4c-0.2-0.1-0.3,0-0.4,0.1L44.3,73.1L44.3,73.1z"/>
	<path class="st0" d="M41.1,74.2c-0.1,0.1-0.3,0.1-0.5,0.1s-0.3-0.1-0.4-0.3c-0.1-0.2-0.1-0.3-0.1-0.5s0.1-0.3,0.3-0.4
		c-0.1,0.1-0.2,0.3-0.3,0.4s0,0.3,0.1,0.5c0.1,0.2,0.3,0.2,0.4,0.3S41,74.3,41.1,74.2L41.1,74.2z"/>
	<path class="st0" d="M46.4,44c0.1-0.2,0.1-0.3,0-0.5c-0.1-0.2-0.2-0.3-0.4-0.3c-0.2-0.1-0.3-0.1-0.5,0c-0.2,0.1-0.3,0.2-0.3,0.3
		c-1.3,0.9-2.8,1.3-4.4,1.1c-0.9-0.1-1.7,0.3-2.2,1.1c-1,1-1.8,1.9-2.8,2.9c-0.1,0.2-0.1,0.5,0.1,0.6c0.2,0.2,0.4,0.2,0.6,0.2
		c0.8-0.1,1.5-0.4,2.2-0.8c1.1-0.8,2.3-1.3,3.6-1.6C44.1,47,45.9,45.8,46.4,44L46.4,44z"/>
	<path class="st0" d="M36.6,89c-0.4-0.3-0.9-0.4-1.3-0.1c-0.4,0.3-0.7,0.7-0.6,1.2c0,0.1,0.1,0.1,0.1,0.2c1.7,2.7,4.8,4,7.9,3.6
		c2.1,0,3.9,0.1,6,0.2c0.3-0.1,0.6-0.5,0.5-0.8c0-0.3-0.3-0.6-0.7-0.7C44.3,92.2,40.4,91.1,36.6,89L36.6,89z"/>
	<path class="st0" d="M51.1,53c-2.8-0.7-5.5-0.7-8.3,0c-1.2,0-2.2,0.6-2.9,1.5c-2.1,1.7-4.3,2.8-6.9,3.7c-0.7,0.1-1.3,0.6-1.5,1.3
		c-0.2,1.5-0.5,2.8-0.8,4.2c-0.2,1.5,0,2.9,0.5,4.3c0.6,1.4,1.6,2.4,2.9,3c0.5,0.2,1.1,0.1,1.5-0.4c-0.3-1.8-0.2-3.5,0.4-5.2
		c0.8-1.6,2.5-2.4,4.3-2.2c1.3,0.3,2.5-0.1,3.5-1c3.1-1.3,6.3-1.5,9.6-0.7c0.4-1.8,0.6-3.5,0.5-5.3C53.7,54.7,52.6,53.4,51.1,53
		L51.1,53z"/>
	<path class="st1" d="M64.7,94.8l5.8,0.7c-0.8,0.7-1.3,1.5-1.6,2.5c-0.1,0.4-0.1,0.7,0.1,1c0.2,0.3,0.5,0.5,0.8,0.6
		c1.7,0.3,3.2,0.3,4.9,0c0.3,0,0.5-0.1,0.7-0.3c0.2-0.2,0.3-0.5,0.3-0.7c0.1-1.1-0.1-2.2-0.7-3.1l0.6-0.2c1.4-4.7,2.1-9.2,2.4-14.2
		c0-0.2,0-0.4-0.2-0.6c-0.2-0.2-0.4-0.3-0.6-0.2l-16.1-4c-0.8-0.3-1.7-0.2-2.4,0.3s-1.2,1.2-1.3,2.1c0.2,1.9,1.5,3.4,3.2,4
		c3.3,1.4,6.5,2,10.1,1.8l-0.7,10.3c-6.7-0.7-12.8-1.7-19.5-3c-5-0.3-9.4-1.9-13.3-5c-0.1-0.2-0.3-0.4-0.4-0.6c0,0,0,0,0-0.1
		c-1.6,0.1-3.1-0.1-4.6-0.8c-3.2-1.4-5.3-4.5-5.3-8c0-0.8,0-1.5-0.2-2.2c-0.4-1.2-0.9-2.2-1.5-3.2c-0.3-0.3-0.5-0.7-0.6-1.1
		c-0.3-1.2-0.6-2.3-1-3.5c-0.9-0.8-1.2-2-0.9-3.1l0-0.2c0.2-0.5,0.2-1.1-0.1-1.6c-0.3-0.5-0.8-0.8-1.4-0.8c-0.6-0.3-1-1-0.9-1.7
		c0-0.7,0.4-1.3,1-1.6c0.5-0.7,0.9-1.4,1-2.2c0.3-2.1,1.1-3.9,2.5-5.5c-1.1-1.2-1.4-2.9-0.8-4.5c0.6-1.6,1.9-2.7,3.6-2.9
		c3.4,0.6,6.7,0.2,10-1.1c0.1,0,0.2,0,0.3,0c0.1,0,0.2,0.1,0.3,0.2c0,0.1,0.1,0.2,0,0.3c0,0.1-0.1,0.2-0.2,0.3
		c-0.8,0.5-1.4,1.1-1.8,1.9c-0.4,0.7-0.8,1.2-1.4,1.7c-0.7,0.3-1.3,0.8-1.8,1.4c-0.5,0.4-0.6,1.1-0.4,1.6c0.2,0.6,0.8,0.9,1.4,0.9
		c1.3,0.6,2.7,0.9,4.1,0.8c0.3-0.1,0.7,0,0.9,0.3c0.2,0.3,0.2,0.7-0.1,0.9c-0.4,0.9-1,1.6-1.7,2.2c-1.2,1.3-2.9,1.8-4.5,1.3l-0.2,0
		c-1.8-0.4-3.3-1-5-1.7c-1-0.4-2.2-0.1-2.9,0.8c-0.4,0.3-0.6,0.7-0.6,1.2s0.2,0.9,0.6,1.2c0.1,0.1,0.2,0.2,0.3,0.3l0.2,0.1
		c0.7,0.3,1.2,0.9,1.4,1.6c0.2,0.7,0.2,1.4-0.2,2.1c-0.4,0.5-0.5,1.2-0.1,1.7c0.4,1,0.7,1.9,1,2.9c1,1.3,1.6,2.6,2.1,4.2
		c0.1,0.1,0.1,0.2,0.2,0.3c0.4,0.6,0.7,1.2,1,1.9c0.8,1.7,1.8,3,3.3,4.1c0.9,0.8,1.4,1.8,1.6,2.9c0.1,0.3,0.4,0.6,0.7,0.7
		c0.3,0.2,0.7,0.2,1,0.1c1.1-0.3,2.2-0.3,3.3-0.2c0.2,0.1,0.5,0,0.6-0.2c0.2-0.2,0.2-0.5,0-0.7c-0.4-0.7-1-1.2-1.8-1.6
		c-0.2-0.1-0.5-0.2-0.8-0.3c-0.5-0.1-0.9-0.4-1.2-0.9c-0.2-0.5-0.2-1,0-1.5c0.2-0.8,0.6-1.5,1.2-2.1c0.3-0.2,0.6-0.5,0.7-0.9
		c0.1-0.4,0-0.8-0.2-1.1c-0.9-1.2-1-2.9-0.1-4.2c0.8-1.3,2.4-1.9,3.9-1.5c0.5,0,0.8-0.2,1.2-0.5c2-2,5.2-2.2,7.5-0.6
		c2,1.3,3.3,3.2,3.8,5.6c0.5,2.3,0.1,4.6-1.1,6.7c0,0.1,0,0.2,0.1,0.3c0.1,0.2,0.3,0.3,0.5,0.3c1.6-0.5,2.6-2,2.5-3.6
		c0.5-0.9,1.1-1.7,2-2.3c0.3-0.2,0.6-0.3,0.9-0.5c8,2.1,15.1,4.9,22.4,8.8c1.7,0.5,2.9,2.1,2.9,3.9c0.6,0.7,1.7,1,2.6,0.6
		c2.3-0.5,4.3-1.2,6.5-2.2c1-2.3,3-3.9,5.4-4.4c0.1,0,0.1,0,0.2,0c2.2-0.4,4.1-0.8,6.3-1.3c1.2-0.5,2.1-1.1,3-2
		c0.6-0.2,1.1-0.6,1.4-1.2c0-0.1,0-0.1,0.1-0.2c0-0.9,0.5-1.7,1.3-2.2c0.8-0.4,1.7-0.4,2.5,0.1c2.8,1.9,5.3,3.7,8,5.9
		c3.8,4.2,6.9,8.4,9.9,13.1c0.6,0.4,1,1.1,1,1.8c0,0.7-0.3,1.4-1,1.8c-1.1,1.1-2.4,1.7-4,1.8c-1.1,0-2.2-0.3-3.1-1
		c-0.2-0.3-0.5-0.5-0.8-0.7c-1.3-0.4-2.2-1.5-2.3-2.8c-0.7-3.2-2-6-4-8.5c-0.3-0.8-0.3-1.7,0.2-2.5c0-0.4-0.2-0.7-0.4-0.9
		c-0.3-0.2-0.7-0.3-1-0.1c-0.6,0.3-1.1,0.4-1.8,0.4c-0.8,0-1.6,0-2.4-0.2c-0.3,0-0.5,0-0.8,0c-6,2.2-11.3,5-16.5,8.7
		c-0.8,1.2-2,1.9-3.5,1.9c-4.4,2.8-9,4.3-14.1,4.8c-0.4,0.1-0.8,0.5-0.8,0.9c0,0.4,0.2,0.9,0.6,1c1.2,0.9,2.1,1.9,2.8,3.2l0.2,0.1
		c0.2,0.4,0.5,0.8,0.9,0.9c0.4,0.2,0.9,0.2,1.3,0c0.8-0.9,2-1.3,3.3-1.2c0.1,0,0.1,0,0.2,0c1.9,0,3.7,0,5.6,0c0.1,0,0.2,0,0.3,0
		c1.3-0.1,2.5-1.1,2.9-2.4c0.3-0.8,0.9-1.4,1.7-1.7c0.8-0.3,1.6-0.2,2.3,0.3c5.6,4.6,11.8,7.5,19,8.7c3.8,0.7,7.3,1.3,11.2,1.8
		c0.1,0,0.2,0.1,0.3,0.2c0.1,0.1,0.1,0.3,0.1,0.4s-0.1,0.2-0.2,0.3c-0.1,0.1-0.3,0.1-0.4,0.1c-3.8-0.1-7.2-0.6-10.9-1.3l-0.1,0
		l-6.7-1.4c-7.4-3.3-15.7-2.9-22.7,1.2c-2.8,1.9-6,2.7-9.4,2.2c-3.4-0.4-6.3-2-8.6-4.6C67.9,100.4,66.1,97.9,64.7,94.8L64.7,94.8z"
		/>
	<path class="st0" d="M34,99.2c1.8,4.7,4,8.7,6.8,12.8c0.3,0.7,0.3,1.4-0.1,2.1c-4.9,1.1-9.5,1.1-14.4-0.1c-0.4-0.1-0.7-0.4-1-0.8
		c-3.7-4.5-6.5-9-9.1-14.3c-0.2-0.4-0.2-0.9,0.1-1.2c0.2-0.4,0.6-0.6,1-0.7c4.2-0.3,8.1-0.4,12.3-0.3C31.5,96.5,33.3,97.5,34,99.2
		L34,99.2z"/>
	<path class="st0" d="M35.9,30.2c0.9,0.1,1.6,0.5,2.1,1.2c0.5,0.7,0.6,1.6,0.3,2.4c-1,2.2-2.1,4.1-3.5,6c-0.6,0.9-1.7,1.4-2.8,1.1
		c-1.2-0.3-2.3-0.4-3.5-0.5c-2.9,0-5.6,1.8-6.7,4.5c-0.2,0.8-0.4,1.5-0.8,2.2c-0.4,0.4-0.8,0.6-1.2,0.8c-0.8,0.2-1.6,0.2-2.4,0.1
		c-0.5,0-1-0.3-1.3-0.7c-0.3-0.5-0.3-1-0.1-1.5c1.6-5.1,4.1-9.4,7.8-13.3c1.4-1.7,3.4-2.6,5.6-2.5l0.2,0
		C31.8,29.7,33.8,29.8,35.9,30.2L35.9,30.2z"/>
	<path class="st0" d="M22.8,74.9c1.4,0.1,2.5,1.2,2.7,2.6c1.3,4.1,2.6,7.9,4.2,11.9c0.2,0.9,0,1.8-0.7,2.5c-0.6,0.7-1.4,1.1-2.4,1.1
		c-3.2,0.2-6.2,0.3-9.4,0.2c-1.2,0.1-2.3-0.6-2.7-1.7C12,87,11,82.1,11.5,77c0.3-1.3,1.2-2.3,2.5-2.6C17,74.5,19.7,74.7,22.8,74.9
		L22.8,74.9z"/>
	<path class="st0" d="M20.2,54.6c-0.2,1.3-0.5,2.4-0.9,3.7c-0.7,1.4-0.6,2.9,0.1,4.3c0.4,0.9,0.7,1.8,0.9,2.8
		c0.6,0.9,1.1,1.7,1.5,2.7c0.2,0.8,0.3,1.5,0.4,2.3c-0.1,0.4-0.3,0.8-0.7,1l-6.1,0.4c-1.5-0.2-2.8-1-3.5-2.4
		c-1.7-4.9-1.5-10,0.5-14.8c0.5-0.9,1.3-1.5,2.3-1.7c1.6-0.4,3.1-0.5,4.7,0c0.4,0.1,0.7,0.3,0.8,0.7C20.4,53.9,20.4,54.2,20.2,54.6
		L20.2,54.6z"/>
	<path class="st0" d="M134.6,141.1v42.8h-9.3v-42.8H134.6L134.6,141.1z M100.1,140.8c5.8-0.1,11.2,2.1,15.4,6.2
		c4.2,4.1,6.4,9.5,6.3,15.3s-2.3,11.2-6.5,15.3c-4.2,4.1-9.6,6.2-15.4,6l-13.4,0l0.2-26l9.2,0.3V174c5.9,1.1,12-1.6,15-6.9
		c1.9-3.7,1.8-8.1-0.3-11.7c-2.1-3.6-5.9-5.9-10.1-6l-13.3,0l-0.1-8.6L100.1,140.8L100.1,140.8z M82.8,183.4l-39.6,0l8.8-26.6
		c0.1-0.1,0.2-0.1,0.3-0.2l9.4-0.1L57,172.6l11.8,0l-9.1-31.9h10.2L82.8,183.4L82.8,183.4z M30,165.2l0.1,18.1h-9.9v-27.2l16.5-0.1
		c1.8-0.3,3.1-1.8,3.2-3.6c0.1-1.8-1.2-3.4-3-3.8l-17.3,0l-0.1-8.5l18.5,0c3.2,0.3,6,1.7,8.1,4.1c2.1,2.4,3.2,5.3,3.1,8.5
		c-0.1,3.2-1.3,6.1-3.5,8.4s-5.1,3.6-8.3,3.8L30,165.2L30,165.2z"/>
</g>
</svg>
